<?xml version="1.0" encoding="UTF-8"?>
<svg width="67px" height="44px" viewBox="0 0 67 44" version="1.1" xmlns="http://www.w3.org/2000/svg" xmlns:xlink="http://www.w3.org/1999/xlink">
    <!-- Generator: Sketch 47.1 (45422) - http://www.bohemiancoding.com/sketch -->
    <title>CD-logo-BW</title>
    <desc>Created with Sketch.</desc>
    <defs></defs>
    <g id="Symbols" stroke="none" stroke-width="1" fill="none" fill-rule="evenodd">
        <g id="Footer-Colour" transform="translate(-50.000000, -47.000000)" fill-rule="nonzero">
            <g id="CD-logo-BW" transform="translate(50.000000, 47.000000)">
                <path d="M67,0 C67,12.0947867 56.6933962,22 44,22 L44,0 L67,0 Z" id="Shape" fill="#B1B1B1"></path>
                <path d="M0,0 C12.7535545,0 23,9.90521327 23,22 L0,22 L0,0 Z" id="Shape" fill="#898989"></path>
                <path d="M46,0 C33.2464455,0 23,9.90521327 23,22 L46,22 L46,0 Z" id="Shape" fill="#E2E2E2"></path>
                <path d="M23,44 C35.7535545,44 46,34.1990521 46,22 L23,22 L23,44 Z" id="Shape" fill="#D8D8D8"></path>
                <path d="M0,22 C0,34.1990521 10.3554502,44 23,44 L23,22 L0,22 Z" id="Shape" fill="#B1B1B1"></path>
            </g>
        </g>
    </g>
</svg>