<?xml version="1.0" encoding="UTF-8"?>
<svg width="27px" height="22px" viewBox="0 0 27 22" version="1.1" xmlns="http://www.w3.org/2000/svg" xmlns:xlink="http://www.w3.org/1999/xlink">
    <!-- Generator: Sketch 47.1 (45422) - http://www.bohemiancoding.com/sketch -->
    <title>github-big-logo</title>
    <desc>Created with Sketch.</desc>
    <defs></defs>
    <g id="Symbols" stroke="none" stroke-width="1" fill="none" fill-rule="evenodd">
        <g id="Footer-Colour" transform="translate(-1105.000000, -58.000000)" fill-rule="nonzero" fill="#FFFFFF">
            <g id="Group" transform="translate(893.000000, 56.000000)">
                <g id="github-big-logo" transform="translate(212.000000, 2.000000)">
                    <path d="M19.6329938,0 C19.977957,0.80652267 20.2087383,2.15646913 19.8704652,3.14030506 C21.2436841,4.34606966 21.7298147,7.26903965 21.0555173,9.66919967 C23.0235391,9.82595653 25.3656459,9.59828585 26.8822246,10.2137719 C25.4664475,10.0272714 23.5286718,9.66466348 21.7107562,9.78708313 C21.365793,9.81338153 20.8471676,9.77335972 20.8729162,10.2698713 C22.9943612,10.4425909 25.0945552,10.62111 26.82623,11.175903 C25.1001771,10.8898935 23.0179172,10.4551659 20.8729162,10.3910851 C19.9992642,12.1665719 18.2171605,13.0474536 15.7574424,13.2328057 C16.0206624,13.8219933 16.5359146,14.0404767 16.6501528,14.9957175 C16.8338221,16.3971123 16.3757451,18.459757 16.8305051,19.399035 C17.0589814,19.8520795 17.4252518,19.8589125 17.6660964,20.237598 C17.0646033,20.9766521 15.5715243,20.157497 15.4068573,19.399035 C15.1178887,18.0868709 15.8504296,16.0539698 15.0462088,15.1650493 C15.1022035,16.5928 14.7247454,18.6016421 15.1022035,19.8818231 C15.2589998,20.3874645 15.7014477,20.5773528 15.588334,21.0338425 C12.7880941,21.3255366 13.9585852,17.3375387 13.4982595,14.9842909 C13.0782432,15.0243127 13.2619125,15.6272237 13.2607881,15.8892316 C13.2496004,18.192122 13.72117,21.3347238 11.3017614,21.0315457 C11.2278327,20.5522027 11.6299712,20.3874645 11.7777724,19.9401619 C12.2224691,18.6519995 11.6960292,16.7220527 11.8965081,15.1650493 C10.9735516,15.8834896 11.9973098,18.3613964 11.4226897,19.6415774 C11.0944799,20.3691475 10.0292879,20.6906426 9.21944521,20.3679991 C9.32474444,19.8245753 9.87693293,19.9092699 10.1121556,19.399035 C10.4392409,18.6840399 10.11328,17.6624216 10.2297669,16.6145048 C8.51939928,16.9645951 7.19430432,16.5641474 6.54131416,15.4647822 C6.25347002,14.9763095 6.18398265,14.3905671 5.83114871,13.9592847 C5.48725368,13.5257056 4.92612627,13.470812 4.75808602,12.8793276 C6.88065541,12.351924 6.96020608,15.1055621 8.86548688,15.1650493 C9.45241906,15.1890509 9.75369967,14.9980143 10.2935761,14.8687616 C10.4481236,14.173232 10.7673945,13.6607002 11.2422811,13.2900535 C8.87667457,12.9651706 6.92096483,12.2112447 6.01256922,10.3922909 C3.85975371,10.5009872 1.8894831,10.7949781 0.0592554135,11.2445774 C1.72037467,10.6313882 3.75889582,10.4060143 5.94982819,10.3362489 C5.81765602,9.54344966 4.68859864,9.76078472 3.98967711,9.78828895 C2.68037984,9.84191932 1.03719461,10.0123422 0,10.2137144 C1.50763987,9.66575446 3.61115083,9.73437148 5.64747942,9.72977787 C5.02692794,7.73345339 5.24089958,4.56116534 6.60405518,3.37825394 C6.21872634,2.3875276 6.33858643,0.774482257 6.83927781,8.15988644e-16 C8.35922976,0.067468613 9.27774489,0.740202459 10.2342644,1.39226507 C11.4159433,1.04676835 12.6536731,0.872900301 14.2766755,0.964427935 C14.9587874,1.00330134 15.6655797,1.31451826 16.1730174,1.26990285 C16.6737088,1.21954542 17.2258973,0.644138638 17.7209667,0.417616359 C18.356079,0.133846244 18.8993286,0.0251500021 19.6329938,0 Z" id="Github__x28_alt_x29__3_"></path>
                </g>
            </g>
        </g>
    </g>
</svg>