<?xml version="1.0" encoding="UTF-8"?>
<svg width="20px" height="20px" viewBox="0 0 20 20" version="1.1" xmlns="http://www.w3.org/2000/svg" xmlns:xlink="http://www.w3.org/1999/xlink">
    <!-- Generator: Sketch 47.1 (45422) - http://www.bohemiancoding.com/sketch -->
    <title>Page 1</title>
    <desc>Created with Sketch.</desc>
    <defs></defs>
    <g id="Symbols" stroke="none" stroke-width="1" fill="none" fill-rule="evenodd">
        <g id="Footer-Colour" transform="translate(-969.000000, -60.000000)" fill="#FFFFFF">
            <g id="Group" transform="translate(893.000000, 56.000000)">
                <g id="Page-1" transform="translate(76.000000, 4.000000)">
                    <g id="Group-3">
                        <path d="M17.9565072,13.7329444 C17.9565072,15.8590437 16.1928478,17.58262 14.0173043,17.58262 L5.9477029,17.58262 C3.77212319,17.58262 2.00846377,15.8590437 2.00846377,13.7329444 L2.00846377,5.84670759 C2.00846377,3.72057288 3.77212319,1.99703203 5.9477029,1.99703203 L14.0173043,1.99703203 C16.1928478,1.99703203 17.9565072,3.72057288 17.9565072,5.84670759 L17.9565072,13.7329444 Z M14.0173043,0.0342010046 L5.9477029,0.0342010046 C2.66813768,0.0342010046 -1.44927536e-05,2.64167795 -1.44927536e-05,5.84670759 L-1.44927536e-05,13.7329444 C-1.44927536e-05,16.9379741 2.66813768,19.545451 5.9477029,19.545451 L14.0173043,19.545451 C17.2968696,19.545451 19.9650217,16.9379741 19.9650217,13.7329444 L19.9650217,5.84670759 C19.9649855,2.64167795 17.2968333,0.0342010046 14.0173043,0.0342010046 L14.0173043,0.0342010046 Z" id="Fill-1"></path>
                    </g>
                    <path d="M10,13.0551794 C8.31265744,13.0551794 6.94482062,11.6873776 6.94482062,10 C6.94482062,8.31265744 8.31269252,6.94482062 10,6.94482062 C11.6873426,6.94482062 13.0551794,8.31265744 13.0551794,10 C13.0551794,11.6873426 11.6873075,13.0551794 10,13.0551794 M10,5 C7.24299557,5 5,7.24299557 5,10 C5,12.7569343 7.24299557,15 10,15 C12.7569693,15 15,12.7569693 15,10 C15,7.24299557 12.7569693,5 10,5" id="Fill-4"></path>
                    <path d="M14.9999817,3.75 C15.6903652,3.75 16.25,4.30966325 16.25,5 C16.25,5.69037335 15.6903652,6.25 14.9999817,6.25 C14.3096348,6.25 13.75,5.69037335 13.75,5 C13.75,4.30966325 14.3096348,3.75 14.9999817,3.75" id="Fill-6"></path>
                </g>
            </g>
        </g>
    </g>
</svg>