<?xml version="1.0" encoding="UTF-8"?>
<svg width="20px" height="20px" viewBox="0 0 20 20" version="1.1" xmlns="http://www.w3.org/2000/svg" xmlns:xlink="http://www.w3.org/1999/xlink">
    <!-- Generator: Sketch 47.1 (45422) - http://www.bohemiancoding.com/sketch -->
    <title>linkedin</title>
    <desc>Created with Sketch.</desc>
    <defs></defs>
    <g id="Symbols" stroke="none" stroke-width="1" fill="none" fill-rule="evenodd">
        <g id="Footer-Colour" transform="translate(-1012.000000, -58.000000)" fill-rule="nonzero" fill="#FFFFFF">
            <g id="Group" transform="translate(893.000000, 56.000000)">
                <g id="linkedin" transform="translate(119.000000, 2.000000)">
                    <path d="M5.01548452,19.0118774 C5.01548452,19.3620441 4.71745192,19.6458847 4.34977688,19.6458847 L1.51601779,19.6458847 C1.14834274,19.6458847 0.850310145,19.3620441 0.850310145,19.0118774 L0.850310145,7.69854207 C0.850310145,7.34837536 1.14834274,7.06453479 1.51601779,7.06453479 L4.34977688,7.06453479 C4.71745192,7.06453479 5.01548452,7.34837536 5.01548452,7.69854207 L5.01548452,19.0118774 Z M2.93289733,5.9980836 C1.44611054,5.9980836 0.240806338,4.85017484 0.240806338,3.43418742 C0.240806338,2.0182 1.44611054,0.870291233 2.93289733,0.870291233 C4.41968412,0.870291233 5.62498833,2.0182 5.62498833,3.43418742 C5.62498833,4.85017484 4.41975032,5.9980836 2.93289733,5.9980836 Z M19.824633,19.062946 C19.824633,19.3848674 19.5505648,19.6458847 19.2125474,19.6458847 L16.1717146,19.6458847 C15.8336971,19.6458847 15.559629,19.3848674 15.559629,19.062946 L15.559629,13.7563505 C15.559629,12.9647241 15.8034437,10.2874051 13.3874069,10.2874051 C11.5133499,10.2874051 11.1332292,12.1199484 11.0569005,12.9423421 L11.0569005,19.062946 C11.0569005,19.3848674 10.7828986,19.6458847 10.4448149,19.6458847 L7.50381178,19.6458847 C7.16579436,19.6458847 6.89172617,19.3848674 6.89172617,19.062946 L6.89172617,7.64747347 C6.89172617,7.32555211 7.16579436,7.06453479 7.50381178,7.06453479 L10.4448149,7.06453479 C10.7828324,7.06453479 11.0569005,7.32555211 11.0569005,7.64747347 L11.0569005,8.6344846 C11.7518024,7.64129479 12.7845231,6.87469828 14.9833576,6.87469828 C19.8525032,6.87469828 19.824633,11.2070814 19.824633,13.5875089 L19.824633,19.062946 L19.824633,19.062946 Z" id="Shape"></path>
                </g>
            </g>
        </g>
    </g>
</svg>