<?xml version="1.0" encoding="UTF-8"?>
<svg width="26px" height="26px" viewBox="0 0 26 26" version="1.1" xmlns="http://www.w3.org/2000/svg" xmlns:xlink="http://www.w3.org/1999/xlink">
    <!-- Generator: Sketch 47.1 (45422) - http://www.bohemiancoding.com/sketch -->
    <title>meetup</title>
    <desc>Created with Sketch.</desc>
    <defs></defs>
    <g id="Symbols" stroke="none" stroke-width="1" fill="none" fill-rule="evenodd">
        <g id="Footer-Colour" transform="translate(-1055.000000, -56.000000)" fill-rule="nonzero" fill="#FFFFFF">
            <g id="Group" transform="translate(893.000000, 56.000000)">
                <g id="meetup" transform="translate(162.000000, 0.000000)">
                    <path d="M7.45082462,0 C7.15293213,0 6.91138961,0.2531362 6.91146434,0.565405393 C6.91146434,0.877517942 7.15293213,1.13065414 7.45082462,1.13065414 C7.7487171,1.13065414 7.99025962,0.877674586 7.99033436,0.565405393 C7.99040909,0.2531362 7.74886657,0 7.45097409,0 C7.45089935,0 7.45089935,0 7.45082462,0 Z M14.3471925,0.710614092 C13.7730806,0.710614092 13.3077077,1.19832422 13.3077077,1.79999262 L13.3077077,1.79999262 C13.3077077,2.40166103 13.7730806,2.88944947 14.3471925,2.88944947 L14.3471925,2.88944947 C14.9213792,2.88944947 15.3866774,2.40173935 15.3866774,1.80007094 C15.3866774,1.80007094 15.3866774,1.80007094 15.3866774,1.80007094 C15.3866774,1.19840254 14.9213792,0.710614092 14.3471925,0.710614092 C14.3472673,0.710614092 14.3472673,0.710614092 14.3471925,0.710614092 Z M11.1265757,3.23547538 C10.0838773,3.23806 9.29281058,3.46816958 8.38254202,4.03341833 C7.55283747,4.54861942 6.59982067,5.67590572 6.25178121,6.55342367 C6.13153309,6.85676417 6.12338701,6.86326488 5.78095265,6.93148321 C4.65664394,7.15540536 3.58001596,8.18416278 3.20193316,9.39603668 C3.08041455,9.78545289 3.05545316,9.98948129 3.05620051,10.5865287 C3.05717206,11.3459373 3.12779634,11.675594 3.42180262,12.291047 L3.56260278,12.5856155 L3.35185095,12.8236355 C1.93114445,14.4275886 1.96985702,16.8815686 3.44026209,18.4225509 C3.93956457,18.9458191 4.60455386,19.3480018 5.20235666,19.4881196 L5.53186192,19.5653449 L5.56691249,19.8535693 C5.79993526,21.7675985 6.97409201,23.2179624 8.66713173,23.6831942 C9.21583384,23.8339638 10.140003,23.8442239 10.6744308,23.7054376 C11.1511634,23.5816891 11.7012855,23.3241669 12.023392,23.0740852 L12.262543,22.8883841 L12.5913757,23.1232713 C13.0137014,23.4249671 13.4449206,23.6013479 13.9678393,23.6864054 C15.3339894,23.9085261 16.7888497,22.9865214 17.2523542,21.6050024 L17.3647552,21.2696283 L17.9363261,21.2261596 C18.58876,21.1765036 19.3230284,20.9401283 19.8712073,20.603266 C20.4264861,20.2620177 21.2495393,19.3549725 21.5408551,18.7633292 C21.9574263,17.9169051 22.0657916,17.4506551 22.0651937,16.5075818 C22.0644463,15.5700693 21.9771562,15.1529272 21.6235117,14.3964948 L21.3981118,13.9144239 L21.6220917,13.6852542 C21.7452545,13.5592343 21.9193116,13.3150268 22.008769,13.1427971 C22.7432616,11.7284612 22.1988941,10.0223765 20.7947787,9.33831348 L20.4833592,9.18652575 L20.4821634,8.86838241 C20.4777541,7.70459813 20.0664891,6.52068514 19.3429078,5.5897517 C18.7946541,4.88438517 17.7717604,4.20846765 16.899457,3.97538184 C16.1116786,3.76477441 14.992975,3.79187376 14.3286583,4.03749107 C14.1196254,4.11479473 14.086219,4.10555275 13.5224205,3.81537032 C12.7072892,3.39595684 12.0352001,3.23328237 11.1265757,3.23547538 Z M5.12119479,4.14040597 C4.68063378,4.14040597 4.32347668,4.51470606 4.32355142,4.97641333 C4.32355142,4.97641333 4.32355142,4.97649166 4.32355142,4.97649166 C4.32355142,5.43819893 4.68063378,5.8124207 5.12119479,5.8124207 C5.5617558,5.8124207 5.91883816,5.43812061 5.91883816,4.97649166 C5.91891289,4.51478438 5.56183053,4.14048429 5.12119479,4.14040597 C5.12126952,4.14040597 5.12126952,4.14040597 5.12119479,4.14040597 Z M22.2451548,6.81658506 C21.7676749,6.81658506 21.3806986,7.22229222 21.3806986,7.72269048 C21.3807734,8.22301042 21.7678243,8.62856093 22.2451548,8.62863925 C22.7226348,8.62863925 23.1096857,8.22308874 23.1097605,7.72269048 C23.1097605,7.22229222 22.7227095,6.81666338 22.2453043,6.81658506 C22.2452296,6.81658506 22.2452296,6.81658506 22.2451548,6.81658506 Z M13.4910319,7.89186566 C13.8297295,7.88364187 14.0812118,8.00739038 14.4545863,8.33501066 C14.6874596,8.53950899 14.899183,8.70680445 14.9250412,8.70680445 C14.9508994,8.70680445 15.1134473,8.6298924 15.2864582,8.53582786 C15.5564746,8.38897441 15.6734344,8.36461631 16.1139954,8.36351981 C16.8012556,8.36179673 17.1586369,8.47732145 17.4677396,8.80126059 C17.9476858,9.30424348 18.0414031,10.0710143 17.7385034,11.018317 C17.6429177,11.3175848 17.3063874,12.1791251 16.9907081,12.9327379 C16.6750287,13.686429 16.3324449,14.5595609 16.2294605,14.8728483 C16.0426238,15.4409949 15.950177,16.1371978 16.0216981,16.435839 C16.0855215,16.7025249 16.3664492,16.851728 17.0399582,16.9764947 C17.7059938,17.0999299 17.9137563,17.2003385 18.0227942,17.4512817 C18.2074636,17.8759427 17.9943203,18.3540976 17.56482,18.4790993 C17.2599024,18.5679162 16.2844652,18.5513903 15.838897,18.4498852 C15.2916149,18.3251968 14.9605402,18.1497559 14.6015894,17.7939398 C14.014399,17.2119302 13.7787605,16.3465521 13.9940711,15.5632553 C14.0502716,15.358992 14.4678891,14.3740948 14.9221265,13.3747864 C15.376364,12.375478 15.7746999,11.4548047 15.807359,11.3290198 C15.8930049,10.9991282 15.7905437,10.811469 15.5115591,10.786876 C15.326217,10.770585 15.2708386,10.7994858 15.118903,10.9927058 C15.0215237,11.116376 14.3846346,12.3709353 13.7033532,13.7804152 C12.3375019,16.606424 12.2497634,16.7416858 11.7295352,16.8233755 C11.1157392,16.919868 10.6898262,16.658743 10.6353446,16.1525489 C10.6074685,15.8932253 10.6753276,15.6783101 11.3077326,14.0243094 C12.0946142,11.966168 12.163669,11.6679967 11.9218276,11.37335 C11.8278113,11.2588434 11.7192966,11.1974391 11.6107071,11.1974391 C11.2282149,11.1974391 11.1921928,11.2683204 10.0502467,14.2613896 C9.45834792,15.812867 8.90112605,17.1973623 8.81196757,17.3381066 C8.46303129,17.8891008 7.90902301,18.114981 7.22923625,17.9832437 C6.30402076,17.8040433 5.77953269,17.1849874 5.77669277,16.2688568 C5.77557175,15.9158603 5.85359477,15.5692861 6.22779138,14.2637393 C6.85085451,12.0899165 7.41420462,10.3427911 7.69617861,9.70924573 C7.97628424,9.08016468 8.29510243,8.71072054 8.79470385,8.43643744 C9.11882821,8.25849021 9.20537099,8.23937968 9.69152016,8.23820486 C10.2200439,8.23695171 10.2412686,8.24282585 10.8872752,8.56974122 C11.6854417,8.97364697 11.7627174,8.9687127 12.2978926,8.48100257 C12.7480943,8.07075275 12.9119128,7.97277213 13.2399233,7.91786851 C13.3301281,7.9027524 13.4128594,7.89382371 13.4910319,7.89186566 Z M25.1524091,10.2756693 C24.8914355,10.2756693 24.6797869,10.4973985 24.6797869,10.7708983 C24.6797122,11.0444765 24.8913608,11.266284 25.1524091,11.266284 L25.1524091,11.266284 C25.4134574,11.266284 25.625106,11.0444765 25.625106,10.7708983 C25.625106,10.7708983 25.625106,10.7708983 25.625106,10.7708983 C25.6250313,10.4973985 25.4134574,10.2756693 25.1524091,10.2756693 Z M1.04127847,11.1626642 C0.46619501,11.1626642 0,11.6512359 0,12.2539225 L0,12.2539225 C0,12.856609 0.46619501,13.3451807 1.04127847,13.3451807 L1.04127847,13.3451807 C1.61636192,13.3451807 2.08255693,12.8566874 2.08255693,12.2539225 L2.08255693,12.2539225 C2.08255693,11.6512359 1.61636192,11.1626642 1.04127847,11.1626642 L1.04127847,11.1626642 Z M23.8473919,13.5309601 C23.4840318,13.5309601 23.1894277,13.8396265 23.1894277,14.2204273 C23.1894277,14.6012281 23.4839571,14.9099728 23.8473919,14.9099728 C24.2106772,14.9099728 24.5052814,14.6013064 24.5052814,14.2204273 C24.5052814,13.8396265 24.2106772,13.5309601 23.8473919,13.5309601 Z M4.33274378,20.3585102 C4.07020081,20.3585102 3.85735641,20.5815709 3.85728167,20.8566372 C3.85750588,21.0988866 4.0238653,21.3057346 4.25150717,21.3471669 C4.26092375,21.3489683 4.27041505,21.3505347 4.27990636,21.3517095 C4.28349362,21.3521012 4.28708089,21.3525711 4.29066815,21.3528844 C4.30195309,21.3539809 4.3131633,21.3544508 4.32444823,21.3545291 C4.32728815,21.3546858 4.33005334,21.3548424 4.33281852,21.3549991 C4.3353595,21.3549991 4.33790048,21.3548424 4.34044146,21.3547641 C4.34275823,21.3546858 4.34507501,21.3546858 4.34731705,21.3545291 C4.60410545,21.3463837 4.8082059,21.1259077 4.80835537,20.8567155 C4.8082059,20.7061026 4.74303725,20.5637918 4.63115941,20.4693356 C4.61172839,20.448502 4.59267104,20.4311146 4.5755568,20.421481 C4.49581488,20.3768376 4.41644664,20.3581186 4.34111407,20.3590585 C4.33827415,20.3588235 4.33550897,20.3586669 4.33274378,20.3585102 Z M18.9697575,22.1155825 C18.3618655,22.1155825 17.8690649,22.6320367 17.8689902,23.2691849 C17.8690649,23.9063331 18.3618655,24.4227874 18.9697575,24.4227874 C19.5776495,24.4227874 20.0705248,23.9063331 20.0705248,23.2692633 C20.0705248,23.2691849 20.0705248,23.2691849 20.0705248,23.2691849 C20.0705995,22.6320367 19.5777989,22.1155825 18.9697575,22.1155825 L18.9697575,22.1155825 Z M12.2014848,24.2492262 C11.8390215,24.2493045 11.5451647,24.557266 11.54509,24.9371269 C11.54509,25.3171445 11.8389468,25.625106 12.2014848,25.625106 C12.5640228,25.6251843 12.8579543,25.3171445 12.8579543,24.9372836 C12.8579543,24.9372052 12.8579543,24.9371269 12.8579543,24.9371269 C12.8579543,24.5571877 12.5640228,24.2492262 12.2014848,24.2492262 Z" id="path84774"></path>
                </g>
            </g>
        </g>
    </g>
</svg>