<?xml version="1.0" encoding="UTF-8"?>
<svg width="20px" height="17px" viewBox="0 0 20 17" version="1.1" xmlns="http://www.w3.org/2000/svg" xmlns:xlink="http://www.w3.org/1999/xlink">
    <!-- Generator: Sketch 47.1 (45422) - http://www.bohemiancoding.com/sketch -->
    <title>twitter</title>
    <desc>Created with Sketch.</desc>
    <defs></defs>
    <g id="Symbols" stroke="none" stroke-width="1" fill="none" fill-rule="evenodd">
        <g id="Footer-Colour" transform="translate(-893.000000, -61.000000)" fill-rule="nonzero" fill="#FFFFFF">
            <g id="Group" transform="translate(893.000000, 56.000000)">
                <g id="twitter" transform="translate(0.000000, 5.000000)">
                    <path d="M19.3981198,1.94911178 C18.9601584,2.14756376 18.5055206,2.30412524 18.0390122,2.41747025 C18.5530509,1.91832005 18.9395412,1.29398943 19.1575847,0.597123892 L19.1575847,0.597123892 C19.219821,0.398180814 19.0083616,0.226149809 18.8325619,0.332668578 L18.8325619,0.332668578 C18.1835736,0.726036649 17.4845079,1.02113637 16.7547325,1.20986464 C16.7123925,1.22081609 16.6687069,1.22636548 16.6248772,1.22636548 C16.4919461,1.22636548 16.3627155,1.1759299 16.2610708,1.08438956 C15.4846301,0.385117655 14.4860129,0 13.4492368,0 C13.0006063,0 12.5476506,0.0714544998 12.1029129,0.212399114 C10.7249662,0.649130982 9.66175773,1.81062265 9.32818045,3.24364141 C9.2030349,3.78114622 9.16915333,4.31914213 9.2274008,4.8426507 C9.23408099,4.90280999 9.20625485,4.94479871 9.1890978,4.96449167 C9.15896483,4.99901574 9.11624041,5.01880691 9.07188198,5.01880691 C9.06693191,5.01880691 9.06183766,5.01856137 9.05679147,5.01807027 C6.04051463,4.73171206 3.32056938,3.24678443 1.39797044,0.836877066 L1.39797044,0.836877066 C1.29993015,0.713955682 1.11192348,0.729032336 1.0337796,0.865999072 L1.0337796,0.865999072 C0.657285657,1.52603239 0.458321537,2.2809455 0.458321537,3.0491182 C0.458321537,4.22637406 0.92117744,5.33580952 1.72515589,6.14459589 C1.38706106,6.06268104 1.05982756,5.93367006 0.755854597,5.76114796 L0.755854597,5.76114796 C0.60879416,5.6776616 0.427852153,5.78496612 0.425785617,5.9568498 L0.425785617,5.9568498 C0.40473579,7.70574165 1.40676523,9.26192735 2.90783898,9.96267255 C2.87760989,9.96340919 2.8473808,9.96375296 2.81710366,9.96375296 C2.57916371,9.96375296 2.33824412,9.94027856 2.10112118,9.89396818 L2.10112118,9.89396818 C1.93550998,9.86165405 1.79637927,10.0221934 1.84780237,10.1862687 L1.84780237,10.1862687 C2.33502417,11.7406373 3.64472711,12.8863648 5.21202612,13.1464984 C3.91126214,14.0387712 2.39649158,14.5094378 0.819917199,14.5094378 L0.328418152,14.5091431 C0.176984349,14.5091431 0.0489072044,14.6100143 0.0103158546,14.7598968 C-0.0276987876,14.9075204 0.0423231261,15.063247 0.171457568,15.1400053 C1.94800531,16.1965006 3.97441162,16.754877 6.03248879,16.754877 C7.83397913,16.754877 9.51911872,16.3895505 11.0411462,15.6691124 C12.4364421,15.0086371 13.669443,14.0645046 14.7058826,12.8629395 C15.6713873,11.743633 16.4263936,10.4515097 16.9498519,9.02251794 C17.4488481,7.66036436 17.7125957,6.206916 17.7125957,4.81927452 L17.7125957,4.75317297 C17.7125477,4.53036262 17.8111647,4.32071364 17.9832158,4.17800108 C18.6360968,3.63632195 19.2046344,2.99868262 19.672969,2.28281166 L19.672969,2.28281166 C19.7966248,2.09378873 19.6016015,1.85688391 19.3981198,1.94911178 L19.3981198,1.94911178 Z" id="Shape"></path>
                </g>
            </g>
        </g>
    </g>
</svg>